<?xml version="1.0" standalone="no"?>
<!DOCTYPE svg PUBLIC "-//W3C//DTD SVG 20010904//EN"
 "http://www.w3.org/TR/2001/REC-SVG-20010904/DTD/svg10.dtd">
<svg version="1.0" xmlns="http://www.w3.org/2000/svg"
 width="256.000000pt" height="256.000000pt" viewBox="0 0 256.000000 256.000000"
 preserveAspectRatio="xMidYMid meet">
<metadata>
Created by potrace 1.11, written by Peter Selinger 2001-2013
</metadata>
<g transform="translate(0.000000,256.000000) scale(0.100000,-0.100000)"
fill="#000000" stroke="none">
<path d="M1553 2110 c-30 -12 -71 -75 -89 -138 -15 -52 -17 -53 -47 -48 -168
29 -258 29 -410 1 -57 -11 -210 -75 -227 -96 -3 -3 -20 -14 -38 -23 -52 -27
-216 -198 -275 -288 -30 -46 -68 -112 -85 -148 -34 -72 -92 -220 -87 -220 2 0
-4 -24 -14 -52 -10 -29 -19 -57 -20 -63 -1 -5 -4 -19 -6 -30 -3 -11 -7 -32
-10 -47 -11 -59 -16 -84 -21 -100 -3 -10 -7 -30 -10 -45 -30 -186 -113 -450
-147 -474 -17 -12 2 -27 30 -24 75 8 292 58 318 74 6 3 15 6 20 7 9 2 230 90
300 119 52 22 236 74 282 80 12 2 26 5 30 8 12 7 161 21 193 18 14 -2 41 -4
60 -6 19 -1 35 -3 35 -4 0 -2 14 -4 30 -6 45 -5 181 -53 259 -91 37 -19 71
-34 75 -34 12 0 2 218 -14 300 -6 33 -13 73 -21 126 l-6 42 68 1 c52 0 76 -5
103 -21 20 -12 38 -25 41 -28 13 -17 162 -81 193 -84 104 -10 221 85 245 199
11 50 -2 155 -19 155 -4 0 -10 8 -13 18 -4 10 -14 27 -24 38 -38 42 -82 102
-82 113 0 6 -4 11 -8 11 -5 0 -14 16 -22 35 -8 19 -17 35 -22 35 -4 0 -8 6 -8
13 0 6 -14 39 -30 72 l-30 59 234 232 c203 202 233 236 230 260 -4 39 -25 55
-70 54 -37 0 -89 -6 -89 -10 0 -1 -7 -3 -16 -5 -38 -7 -213 -83 -318 -137
-139 -73 -152 -80 -172 -96 -21 -17 -54 14 -99 93 -46 82 -87 133 -121 150
-32 17 -44 18 -76 5z"/>
</g>
</svg>
